<svg width="130" height="130" viewBox="0 0 130 130" fill="none" xmlns="http://www.w3.org/2000/svg"><path d="M119.056 66.199L130 67.1242L129.871 68.6281L128.581 68.519L128.57 68.6478C128.728 68.7511 128.909 68.8961 129.112 69.0827C129.315 69.2693 129.485 69.5189 129.622 69.8313C129.762 70.1441 129.812 70.546 129.77 71.037C129.715 71.6756 129.504 72.2319 129.136 72.7057C128.769 73.1796 128.267 73.5332 127.631 73.7665C126.995 74.0032 126.247 74.0852 125.387 74.0125C124.526 73.9398 123.801 73.7349 123.211 73.398C122.624 73.0613 122.185 72.63 121.896 72.1041C121.611 71.5785 121.495 70.9963 121.55 70.3577C121.591 69.877 121.706 69.4907 121.895 69.1988C122.083 68.9104 122.293 68.6895 122.525 68.5362C122.758 68.3829 122.962 68.2671 123.14 68.1887L123.148 68.096L118.924 67.739L119.056 66.199ZM125.891 68.2968C125.332 68.2495 124.834 68.2887 124.399 68.4145C123.964 68.5402 123.614 68.7458 123.349 69.0313C123.088 69.317 122.939 69.6813 122.901 70.1243C122.862 70.5844 122.951 70.9793 123.17 71.3091C123.392 71.6391 123.709 71.9011 124.121 72.095C124.532 72.2923 125.003 72.4134 125.535 72.4584C126.06 72.5028 126.539 72.4637 126.97 72.3411C127.401 72.2219 127.751 72.0163 128.02 71.7243C128.288 71.4357 128.442 71.0596 128.482 70.5961C128.52 70.1497 128.436 69.7622 128.231 69.4336C128.026 69.1085 127.723 68.8494 127.322 68.6564C126.921 68.4634 126.444 68.3435 125.891 68.2968Z" fill="#E2E2E2"/><path d="M120.027 78.6358C120.191 78.0159 120.497 77.5043 120.944 77.1009C121.394 76.7017 121.952 76.4414 122.619 76.3198C123.288 76.2025 124.04 76.2529 124.875 76.471C125.71 76.6892 126.387 77.0141 126.908 77.4458C127.427 77.8808 127.78 78.3828 127.966 78.9517C128.153 79.5206 128.165 80.1134 128.002 80.73C127.876 81.2066 127.694 81.5688 127.456 81.8167C127.221 82.0688 126.977 82.2473 126.723 82.3521C126.469 82.4602 126.249 82.5382 126.064 82.5861L126.041 82.6761L129.868 83.6761L129.473 85.1709L119.172 82.4796L119.558 81.0198L120.76 81.3339L120.793 81.2089C120.653 81.076 120.499 80.897 120.333 80.6718C120.166 80.45 120.042 80.1718 119.962 79.8374C119.882 79.5029 119.904 79.1024 120.027 78.6358ZM121.223 79.3008C121.109 79.7308 121.127 80.1238 121.276 80.48C121.429 80.8404 121.689 81.1507 122.057 81.4109C122.425 81.6744 122.88 81.8772 123.424 82.0191C123.96 82.1593 124.45 82.2052 124.893 82.1571C125.336 82.1089 125.709 81.9658 126.012 81.7279C126.315 81.49 126.524 81.1527 126.64 80.7161C126.759 80.2662 126.74 79.8606 126.585 79.4993C126.43 79.138 126.169 78.8278 125.804 78.5684C125.438 78.3125 125 78.1179 124.49 77.9847C123.974 77.8498 123.489 77.8051 123.036 77.8507C122.584 77.8962 122.197 78.0374 121.876 78.2743C121.558 78.5154 121.34 78.8576 121.223 79.3008Z" fill="#E2E2E2"/><path d="M124.254 90.9355L123.103 90.4565L124.846 86.3177L125.997 86.7967L124.254 90.9355ZM118.151 84.866L126.373 88.2868C126.833 88.4784 127.173 88.7376 127.393 89.0642C127.616 89.3922 127.733 89.7528 127.744 90.1459C127.758 90.5404 127.683 90.9315 127.52 91.3193C127.4 91.6054 127.273 91.8402 127.139 92.0237C127.009 92.2085 126.903 92.3422 126.823 92.4248L125.803 91.608C125.85 91.5492 125.909 91.4727 125.979 91.3785C126.052 91.2855 126.12 91.1644 126.183 91.015C126.328 90.6685 126.346 90.3846 126.237 90.1634C126.126 89.9453 125.907 89.7684 125.581 89.6327L117.55 86.2917L118.151 84.866Z" fill="#E2E2E2"/><path d="M104.853 100.353L112.449 108.239L111.352 109.283L110.456 108.353L110.362 108.443C110.412 108.624 110.451 108.852 110.48 109.125C110.508 109.399 110.47 109.698 110.364 110.022C110.262 110.349 110.031 110.683 109.673 111.023C109.207 111.467 108.679 111.745 108.088 111.859C107.497 111.973 106.885 111.909 106.253 111.666C105.618 111.425 105.002 110.995 104.405 110.376C103.808 109.756 103.401 109.125 103.182 108.484C102.965 107.846 102.923 107.235 103.056 106.65C103.192 106.068 103.492 105.555 103.958 105.112C104.309 104.779 104.652 104.564 104.987 104.469C105.32 104.376 105.625 104.349 105.901 104.387C106.178 104.424 106.408 104.472 106.593 104.53L106.661 104.465L103.73 101.422L104.853 100.353ZM108.586 106.419C108.198 106.016 107.798 105.718 107.388 105.527C106.978 105.335 106.579 105.259 106.19 105.3C105.804 105.342 105.45 105.517 105.127 105.825C104.791 106.144 104.596 106.499 104.541 106.891C104.488 107.284 104.551 107.689 104.731 108.105C104.908 108.523 105.181 108.924 105.551 109.307C105.915 109.686 106.3 109.971 106.705 110.162C107.108 110.356 107.507 110.432 107.903 110.389C108.296 110.349 108.662 110.168 109 109.846C109.326 109.536 109.521 109.191 109.585 108.81C109.648 108.431 109.593 108.037 109.42 107.629C109.248 107.221 108.97 106.817 108.586 106.419Z" fill="#E2E2E2"/><path d="M97.2596 110.336C97.7946 109.979 98.364 109.795 98.9678 109.786C99.5707 109.781 100.163 109.952 100.744 110.299C101.325 110.65 101.856 111.181 102.338 111.893C102.82 112.605 103.112 113.294 103.216 113.959C103.317 114.627 103.249 115.236 103.011 115.785C102.773 116.335 102.388 116.788 101.856 117.144C101.444 117.419 101.067 117.571 100.724 117.602C100.38 117.637 100.078 117.61 99.8178 117.522C99.5549 117.437 99.3382 117.351 99.1676 117.266L99.09 117.318L101.299 120.581L100.009 121.444L94.0633 112.661L95.3232 111.819L96.0171 112.843L96.1249 112.771C96.1077 112.579 96.1115 112.344 96.1363 112.066C96.1582 111.79 96.2502 111.5 96.4123 111.196C96.5745 110.892 96.8569 110.606 97.2596 110.336ZM97.7152 111.62C97.3441 111.869 97.0964 112.176 96.972 112.541C96.8467 112.912 96.836 113.315 96.9398 113.753C97.0407 114.192 97.248 114.643 97.5616 115.106C97.8712 115.564 98.2084 115.92 98.573 116.174C98.9375 116.429 99.3127 116.566 99.6983 116.587C100.084 116.607 100.465 116.491 100.842 116.239C101.23 115.979 101.486 115.663 101.61 115.29C101.733 114.916 101.744 114.513 101.642 114.078C101.537 113.646 101.338 113.212 101.043 112.777C100.745 112.337 100.411 111.985 100.041 111.722C99.6703 111.459 99.286 111.311 98.8877 111.279C98.4886 111.251 98.0977 111.365 97.7152 111.62Z" fill="#E2E2E2"/><path d="M92.2459 122.334L91.7005 121.218L95.7606 119.257L96.306 120.373L92.2459 122.334ZM91.702 113.769L95.5973 121.738C95.8155 122.184 95.8983 122.602 95.8458 122.992C95.7948 123.384 95.6427 123.731 95.3896 124.034C95.138 124.339 94.822 124.584 94.4416 124.767C94.1609 124.903 93.9094 124.996 93.6871 125.046C93.4663 125.099 93.2985 125.13 93.1837 125.139L92.9611 123.856C93.0357 123.843 93.1305 123.824 93.2455 123.799C93.3621 123.777 93.4936 123.731 93.6402 123.66C93.9801 123.496 94.1824 123.295 94.2472 123.057C94.3088 122.82 94.2623 122.544 94.1078 122.228L90.3034 114.445L91.702 113.769Z" fill="#E2E2E2"/><path d="M74.9911 116.163L76.1744 127.017L74.6647 127.179L74.5252 125.9L74.3959 125.914C74.3242 126.088 74.2157 126.292 74.0704 126.526C73.925 126.76 73.7112 126.973 73.4288 127.167C73.1469 127.363 72.7595 127.488 72.2666 127.541C71.6255 127.611 71.0358 127.511 70.4974 127.243C69.9591 126.975 69.5138 126.554 69.1617 125.978C68.806 125.403 68.5817 124.689 68.4887 123.836C68.3957 122.983 68.459 122.236 68.6786 121.595C68.8986 120.958 69.2405 120.448 69.7044 120.065C70.1687 119.686 70.7214 119.462 71.3625 119.393C71.8451 119.341 72.2485 119.379 72.5728 119.507C72.8937 119.635 73.1521 119.798 73.3479 119.995C73.5438 120.193 73.6974 120.37 73.8088 120.528L73.9019 120.518L73.4453 116.33L74.9911 116.163ZM74.2292 123.233C74.1687 122.678 74.0347 122.2 73.8271 121.8C73.6196 121.399 73.3495 121.097 73.017 120.894C72.6848 120.694 72.2964 120.618 71.8518 120.666C71.3899 120.716 71.0172 120.879 70.7335 121.156C70.4502 121.436 70.2522 121.795 70.1396 122.233C70.0235 122.672 69.9942 123.155 70.0518 123.683C70.1085 124.204 70.2388 124.663 70.4425 125.06C70.6428 125.458 70.9129 125.76 71.2527 125.966C71.589 126.173 71.9899 126.251 72.4552 126.201C72.9033 126.152 73.2699 125.997 73.5551 125.734C73.8368 125.471 74.0346 125.126 74.1483 124.698C74.262 124.269 74.289 123.781 74.2292 123.233Z" fill="#E2E2E2"/><path d="M62.6565 119.45C63.2998 119.495 63.8625 119.698 64.3446 120.059C64.823 120.424 65.1844 120.92 65.4289 121.549C65.6697 122.18 65.7601 122.924 65.7002 123.78C65.6403 124.636 65.4456 125.358 65.1159 125.947C64.7828 126.535 64.3525 126.974 63.8249 127.262C63.2974 127.55 62.7136 127.672 62.0738 127.628C61.5792 127.594 61.1873 127.484 60.8979 127.298C60.6049 127.115 60.3829 126.91 60.2321 126.682C60.0777 126.454 59.9597 126.254 59.8778 126.082L59.7844 126.076L59.5099 130L57.9587 129.893L58.6976 119.332L60.2125 119.437L60.1263 120.669L60.256 120.678C60.3611 120.516 60.5095 120.333 60.701 120.129C60.8891 119.924 61.141 119.751 61.4567 119.611C61.7723 119.47 62.1723 119.417 62.6565 119.45ZM62.222 120.742C61.7759 120.711 61.3907 120.802 61.0666 121.014C60.7387 121.23 60.4805 121.542 60.2921 121.95C60.1002 122.358 59.9847 122.841 59.9458 123.398C59.9073 123.948 59.9532 124.435 60.0834 124.858C60.2136 125.282 60.4246 125.619 60.7163 125.871C61.008 126.122 61.3804 126.264 61.8334 126.295C62.3003 126.327 62.6979 126.234 63.026 126.015C63.3541 125.796 63.6122 125.484 63.8004 125.079C63.9852 124.674 64.0958 124.21 64.1324 123.687C64.1694 123.158 64.1232 122.676 63.9937 122.242C63.8642 121.809 63.6525 121.457 63.3585 121.188C63.0609 120.922 62.682 120.773 62.222 120.742Z" fill="#E2E2E2"/><path d="M51.3105 125.884L51.5678 124.67L55.9848 125.594L55.7276 126.808L51.3105 125.884ZM56.1626 118.786L54.3257 127.455C54.2228 127.941 54.0306 128.321 53.749 128.597C53.4667 128.876 53.1323 129.058 52.7459 129.142C52.3588 129.23 51.9583 129.231 51.5444 129.144C51.2391 129.081 50.9832 129.001 50.7768 128.905C50.5697 128.812 50.4178 128.734 50.3212 128.672L50.9368 127.522C51.0038 127.558 51.0904 127.6 51.1966 127.651C51.3021 127.704 51.4346 127.748 51.594 127.781C51.9638 127.859 52.2477 127.823 52.4458 127.674C52.6404 127.525 52.7742 127.278 52.847 126.934L54.6411 118.467L56.1626 118.786Z" fill="#E2E2E2"/><path d="M41.5009 110.528L35.7416 119.824L34.4486 119.033L35.1276 117.937L35.0169 117.869C34.8529 117.963 34.6413 118.058 34.3821 118.154C34.1229 118.251 33.8222 118.289 33.4799 118.27C33.1359 118.253 32.7527 118.116 32.3306 117.858C31.7815 117.522 31.3769 117.084 31.1168 116.544C30.8567 116.004 30.765 115.4 30.8417 114.731C30.9155 114.059 31.1788 113.359 31.6315 112.628C32.0841 111.897 32.5948 111.346 33.1634 110.974C33.7302 110.604 34.3149 110.41 34.9174 110.39C35.5182 110.373 36.0931 110.533 36.6422 110.869C37.0555 111.122 37.3508 111.398 37.5281 111.697C37.7024 111.993 37.8061 112.28 37.8392 112.555C37.8723 112.83 37.8841 113.064 37.8748 113.256L37.9545 113.305L40.1769 109.718L41.5009 110.528ZM36.5385 115.65C36.833 115.174 37.0218 114.715 37.1048 114.272C37.1879 113.829 37.1607 113.426 37.0234 113.063C36.8843 112.703 36.6243 112.406 36.2435 112.173C35.848 111.931 35.4528 111.833 35.058 111.878C34.6614 111.927 34.2835 112.09 33.924 112.368C33.5617 112.644 33.2405 113.008 32.9606 113.46C32.6842 113.906 32.504 114.348 32.4198 114.786C32.3327 115.222 32.3598 115.625 32.5012 115.995C32.6396 116.363 32.9081 116.669 33.3066 116.913C33.6904 117.148 34.076 117.249 34.4635 117.215C34.8481 117.179 35.2173 117.026 35.5712 116.757C35.9252 116.488 36.2476 116.119 36.5385 115.65Z" fill="#E2E2E2"/><path d="M29.8944 105.767C30.3776 106.191 30.6999 106.692 30.8612 107.271C31.0175 107.85 31.0004 108.462 30.8097 109.109C30.6142 109.755 30.2306 110.4 29.6591 111.043C29.0875 111.686 28.4907 112.142 27.8688 112.41C27.2443 112.675 26.6344 112.763 26.0393 112.672C25.4442 112.582 24.9063 112.326 24.4257 111.904C24.0541 111.577 23.8104 111.253 23.6946 110.93C23.5738 110.608 23.5234 110.311 23.5433 110.039C23.5606 109.764 23.5893 109.534 23.6293 109.349L23.5591 109.287L20.9389 112.235L19.7736 111.212L26.8252 103.278L27.9632 104.278L27.1403 105.204L27.2378 105.289C27.4204 105.224 27.6503 105.169 27.9274 105.122C28.2019 105.074 28.5074 105.089 28.844 105.168C29.1805 105.248 29.5306 105.447 29.8944 105.767ZM28.7591 106.529C28.424 106.234 28.0627 106.073 27.6754 106.046C27.2832 106.019 26.8873 106.11 26.4877 106.32C26.0855 106.528 25.6985 106.841 25.3267 107.26C24.9594 107.673 24.6978 108.087 24.5418 108.502C24.3859 108.917 24.3467 109.312 24.4241 109.688C24.5015 110.064 24.7104 110.402 25.0508 110.701C25.4016 111.009 25.7742 111.175 26.1687 111.199C26.5632 111.224 26.9591 111.133 27.3564 110.925C27.7511 110.715 28.1229 110.414 28.4718 110.021C28.8253 109.624 29.0834 109.214 29.2463 108.791C29.4091 108.368 29.4562 107.961 29.3877 107.57C29.3142 107.179 29.1047 106.832 28.7591 106.529Z" fill="#E2E2E2"/><path d="M16.9563 103.997L17.9035 103.19L20.8427 106.595L19.8954 107.403L16.9563 103.997ZM25.1521 101.299L18.387 107.068C18.0081 107.391 17.6225 107.577 17.2303 107.625C16.8355 107.676 16.4589 107.618 16.1004 107.452C15.7394 107.287 15.4211 107.046 15.1457 106.726C14.9425 106.491 14.7885 106.273 14.6834 106.072C14.5758 105.873 14.5028 105.72 14.4644 105.612L15.6566 105.072C15.6882 105.14 15.7307 105.226 15.7842 105.331C15.835 105.437 15.9134 105.552 16.0195 105.675C16.2656 105.96 16.5127 106.103 16.7609 106.105C17.0068 106.104 17.264 105.989 17.5324 105.76L24.1396 100.126L25.1521 101.299Z" fill="#E2E2E2"/><path d="M17.2119 82.5836L6.70287 85.757L6.26147 84.3128L7.50046 83.9386L7.46267 83.815C7.27724 83.7774 7.05534 83.7093 6.79698 83.6108C6.53861 83.5124 6.28763 83.3433 6.04405 83.1035C5.79715 82.8647 5.60164 82.5096 5.45753 82.0381C5.27009 81.4248 5.25871 80.8304 5.4234 80.2548C5.58809 79.6792 5.92218 79.166 6.42569 78.715C6.9282 78.2608 7.59244 77.9089 8.41844 77.6595C9.24443 77.4101 9.99449 77.3331 10.6686 77.4284C11.3394 77.5248 11.9071 77.764 12.3717 78.1459C12.8329 78.5288 13.1573 79.0269 13.3447 79.6402C13.4858 80.1018 13.5233 80.5029 13.457 80.8434C13.3898 81.1807 13.2769 81.4633 13.1183 81.6912C12.9597 81.9192 12.8127 82.1022 12.6774 82.2404L12.7046 82.3294L16.7599 81.1048L17.2119 82.5836ZM10.0814 83.1539C10.6188 82.9916 11.0662 82.7719 11.4235 82.4947C11.7809 82.2175 12.0291 81.8977 12.1683 81.5351C12.3042 81.1735 12.3072 80.7801 12.1772 80.3547C12.0421 79.9129 11.8115 79.5792 11.4853 79.3536C11.1557 79.1289 10.7638 79.0024 10.3094 78.9739C9.854 78.9421 9.37088 79.0034 8.86003 79.1576C8.3558 79.3099 7.92618 79.5225 7.57115 79.7953C7.21511 80.0649 6.96684 80.3848 6.82634 80.755C6.68483 81.1218 6.6821 81.5278 6.81815 81.9729C6.94916 82.4016 7.17114 82.7307 7.48409 82.9604C7.79604 83.1867 8.17422 83.3156 8.61865 83.3471C9.06308 83.3786 9.55067 83.3142 10.0814 83.1539Z" fill="#E2E2E2"/><path d="M11.6925 71.4667C11.7718 72.1027 11.6792 72.6906 11.4146 73.2301C11.1461 73.7667 10.7251 74.2144 10.1515 74.5733C9.57404 74.9292 8.85695 75.1599 8.00024 75.2654C7.14353 75.371 6.39298 75.3194 5.74859 75.1105C5.10378 74.8983 4.58853 74.5624 4.20285 74.103C3.81717 73.6435 3.58489 73.0975 3.50599 72.4648C3.44501 71.9758 3.47855 71.5723 3.60659 71.2544C3.73078 70.9336 3.89101 70.6777 4.0873 70.4868C4.28316 70.2926 4.45791 70.1391 4.61155 70.0264L4.60003 69.9341L0.672567 70.4179L0.481304 68.8841L11.0509 67.582L11.2377 69.0799L10.0042 69.2318L10.0202 69.3601C10.2003 69.4316 10.4096 69.5413 10.6481 69.689C10.8862 69.8333 11.1049 70.0459 11.3041 70.3269C11.5033 70.608 11.6328 70.9879 11.6925 71.4667ZM10.3343 71.2902C10.2792 70.8491 10.1158 70.4907 9.84386 70.2152C9.56808 69.9366 9.2105 69.7446 8.77113 69.639C8.33133 69.5299 7.83274 69.5098 7.27536 69.5784C6.72486 69.6462 6.25298 69.7842 5.85972 69.9924C5.46647 70.2006 5.17355 70.4711 4.98099 70.8038C4.78842 71.1366 4.72007 71.527 4.77593 71.975C4.8335 72.4367 5.0019 72.8066 5.28112 73.0847C5.56035 73.3628 5.91792 73.5549 6.35386 73.6609C6.78936 73.7635 7.2686 73.7826 7.79158 73.7182C8.32143 73.6529 8.78815 73.5155 9.19173 73.3061C9.59531 73.0966 9.90177 72.8227 10.1111 72.4844C10.3166 72.1431 10.391 71.7451 10.3343 71.2902Z" fill="#E2E2E2"/><path d="M3.17933 61.266L4.4272 61.2899L4.34008 65.7758L3.09221 65.7519L3.17933 61.266ZM11.1025 64.6751L2.1906 64.5041C1.69145 64.4945 1.27933 64.3781 0.954251 64.1547C0.625701 63.9312 0.383447 63.6388 0.227489 63.2774C0.0680647 62.9158 -0.00756628 62.5249 0.000596364 62.1046C0.00661798 61.7945 0.0377673 61.5297 0.0940443 61.3102C0.146854 61.0906 0.195094 60.9278 0.238764 60.8218L1.49001 61.2077C1.4678 61.2797 1.44173 61.3722 1.41179 61.4854C1.37839 61.5985 1.36012 61.736 1.35697 61.898C1.34968 62.2735 1.43805 62.544 1.62208 62.7096C1.80619 62.8716 2.07502 62.9561 2.42858 62.9629L11.1325 63.1298L11.1025 64.6751Z" fill="#E2E2E2"/><path d="M16.4302 48.9508L6.1615 45.0773L6.70029 43.6661L7.91095 44.1228L7.95708 44.002C7.83347 43.8595 7.69971 43.6708 7.55578 43.4359C7.41185 43.201 7.31722 42.9147 7.2719 42.5769C7.22333 42.238 7.28701 41.8381 7.46291 41.3774C7.69172 40.7781 8.04827 40.3008 8.53255 39.9453C9.01684 39.5899 9.5969 39.3866 10.2727 39.3357C10.9498 39.2814 11.6919 39.4066 12.499 39.711C13.3061 40.0155 13.947 40.4102 14.4219 40.8953C14.8935 41.3791 15.1957 41.9133 15.3285 42.4978C15.4581 43.0812 15.4085 43.6725 15.1797 44.2717C15.0075 44.7228 14.7904 45.0629 14.5286 45.2922C14.268 45.5183 14.0049 45.6733 13.7391 45.7574C13.4734 45.8414 13.2446 45.897 13.0525 45.9241L13.0193 46.0111L16.9819 47.5058L16.4302 48.9508ZM10.4362 45.0698C10.9613 45.2679 11.4505 45.3658 11.9038 45.3636C12.357 45.3613 12.7502 45.259 13.0834 45.0566C13.4132 44.853 13.6575 44.5434 13.8162 44.1278C13.9811 43.6961 14.0038 43.2918 13.8843 42.9151C13.7617 42.5371 13.5293 42.1988 13.1872 41.9002C12.8463 41.5984 12.4263 41.3533 11.9271 41.165C11.4344 40.9791 10.9637 40.8864 10.5149 40.8866C10.0673 40.8836 9.67414 40.986 9.3353 41.1936C8.99769 41.3979 8.74585 41.7176 8.57978 42.1525C8.41987 42.5714 8.39314 42.9667 8.4996 43.3386C8.60729 43.7073 8.82732 44.0391 9.1597 44.334C9.49208 44.6289 9.91758 44.8742 10.4362 45.0698Z" fill="#E2E2E2"/><path d="M18.9789 36.6266C18.6488 37.1773 18.2128 37.585 17.6708 37.8496C17.1276 38.1096 16.5187 38.2064 15.8443 38.1399C15.1686 38.0688 14.46 37.8136 13.7183 37.3745C12.9767 36.9353 12.4159 36.4368 12.036 35.8789C11.6578 35.3181 11.4583 34.7386 11.4373 34.1406C11.4164 33.5426 11.5701 32.9698 11.8983 32.4221C12.1521 31.9987 12.4276 31.7006 12.7249 31.5277C13.0211 31.35 13.3055 31.2457 13.5783 31.2147C13.8529 31.1808 14.0857 31.1661 14.2765 31.1709L14.3245 31.0909L10.9245 29.0777L11.7203 27.7499L20.8702 33.1678L20.0931 34.4645L19.0253 33.8323L18.9587 33.9433C19.0568 34.1096 19.1544 34.3239 19.2515 34.586C19.3505 34.8451 19.3918 35.1464 19.3757 35.4898C19.3595 35.8332 19.2273 36.2121 18.9789 36.6266ZM18.0152 35.6589C18.2441 35.277 18.3363 34.8944 18.2916 34.511C18.2458 34.1228 18.082 33.7531 17.8003 33.4017C17.5203 33.0474 17.139 32.7274 16.6565 32.4417C16.18 32.1595 15.7222 31.9807 15.2831 31.9053C14.8441 31.8298 14.4458 31.8647 14.0883 32.0101C13.7309 32.1554 13.4359 32.422 13.2035 32.8098C12.9639 33.2095 12.8686 33.6042 12.9174 33.9941C12.9662 34.384 13.13 34.7538 13.4088 35.1034C13.6893 35.45 14.0559 35.7573 14.5087 36.0254C14.9674 36.297 15.4207 36.4732 15.8687 36.5539C16.3166 36.6347 16.7277 36.6053 17.1018 36.4658C17.4748 36.3217 17.7792 36.0527 18.0152 35.6589Z" fill="#E2E2E2"/><path d="M18.3934 23.5522L19.3668 24.3287L16.5414 27.8279L15.5681 27.0514L18.3934 23.5522ZM22.5724 31.0615L15.6208 25.516C15.2315 25.2055 14.9767 24.863 14.8566 24.4888C14.7337 24.1124 14.7216 23.7338 14.8202 23.3529C14.9161 22.9699 15.0964 22.6144 15.3612 22.2866C15.5565 22.0447 15.7438 21.8539 15.9233 21.7143C16.1 21.5725 16.2382 21.4729 16.338 21.4154L17.0916 22.4806C17.0298 22.5241 16.9523 22.5815 16.859 22.653C16.7631 22.7223 16.6641 22.82 16.5621 22.9464C16.3256 23.2393 16.2293 23.5072 16.2734 23.75C16.3195 23.9901 16.4805 24.2201 16.7563 24.4401L23.5457 29.8562L22.5724 31.0615Z" fill="#E2E2E2"/><path d="M36.5355 21.7796L30.7763 12.4839L32.0693 11.6924L32.7483 12.7884L32.859 12.7206C32.8485 12.5328 32.8583 12.3022 32.8884 12.0288C32.9185 11.7554 33.0193 11.4711 33.1907 11.176C33.3602 10.878 33.6561 10.5997 34.0782 10.3413C34.6273 10.0052 35.2028 9.84319 35.8047 9.85519C36.4066 9.86719 36.9909 10.0579 37.5577 10.4273C38.1275 10.7948 38.6387 11.3439 39.0914 12.0746C39.544 12.8052 39.8097 13.5067 39.8882 14.1789C39.965 14.8483 39.8766 15.4548 39.6231 15.9985C39.3677 16.5393 38.9655 16.9777 38.4164 17.3138C38.0031 17.5668 37.6224 17.7047 37.2742 17.7276C36.929 17.7488 36.6253 17.712 36.3632 17.6175C36.101 17.523 35.8856 17.4283 35.7168 17.3333L35.6371 17.3821L37.8595 20.9692L36.5355 21.7796ZM34.168 15.07C34.4625 15.5454 34.79 15.9196 35.1505 16.1926C35.5111 16.4657 35.8854 16.623 36.2736 16.6646C36.66 16.7034 37.0436 16.6062 37.4244 16.3731C37.82 16.1309 38.0861 15.8244 38.2227 15.4534C38.3575 15.0795 38.381 14.6706 38.2931 14.2265C38.2083 13.7807 38.0259 13.3318 37.7459 12.8799C37.4696 12.4339 37.1535 12.075 36.7977 11.803C36.4449 11.5293 36.0706 11.372 35.6747 11.331C35.2817 11.2882 34.886 11.3888 34.4875 11.6328C34.1037 11.8677 33.8399 12.1647 33.696 12.524C33.5551 12.8814 33.5258 13.2777 33.6081 13.7129C33.6905 14.1482 33.8771 14.6005 34.168 15.07Z" fill="#E2E2E2"/><path d="M45.7721 13.6968C45.1736 13.9354 44.5782 13.9964 43.9858 13.8799C43.3953 13.7588 42.8523 13.4685 42.3568 13.0089C41.8632 12.5448 41.4557 11.9145 41.1343 11.1181C40.813 10.3217 40.6716 9.58726 40.7102 8.91468C40.7521 8.24081 40.9473 7.65991 41.2957 7.17197C41.6442 6.68403 42.1161 6.3214 42.7114 6.08407C43.1715 5.90062 43.5725 5.82985 43.9144 5.87177C44.2582 5.9092 44.548 5.99787 44.7838 6.13779C45.0228 6.27643 45.2167 6.40519 45.3655 6.52407L45.4524 6.48943L43.9791 2.83853L45.4223 2.26317L49.3871 12.0885L47.9778 12.6504L47.5151 11.5038L47.3944 11.5519C47.3708 11.7432 47.3175 11.9724 47.2347 12.2393C47.1552 12.5049 47.0041 12.7693 46.7816 13.0326C46.5591 13.2958 46.2226 13.5172 45.7721 13.6968ZM45.597 12.3464C46.0121 12.1809 46.319 11.9323 46.5176 11.6007C46.7181 11.2645 46.8137 10.8719 46.8042 10.4227C46.798 9.97217 46.6904 9.48785 46.4813 8.96972C46.2748 8.45799 46.0201 8.03973 45.7172 7.71494C45.4143 7.39015 45.0764 7.17769 44.7036 7.07758C44.3307 6.97746 43.9335 7.01143 43.512 7.17948C43.0776 7.35267 42.7608 7.60893 42.5615 7.94827C42.3623 8.28761 42.2667 8.68029 42.2749 9.1263C42.2862 9.57102 42.39 10.0365 42.5862 10.5226C42.7849 11.0152 43.0377 11.4286 43.3445 11.763C43.6512 12.0974 43.9959 12.322 44.3784 12.4368C44.7629 12.5472 45.1691 12.517 45.597 12.3464Z" fill="#E2E2E2"/><path d="M53.2224 2.95388L53.5214 4.15835L49.1388 5.23291L48.8398 4.02845L53.2224 2.95388ZM51.9546 11.4424L49.8198 2.8405C49.7003 2.35871 49.7071 1.9329 49.8402 1.56306C49.9726 1.18988 50.1943 0.881741 50.5053 0.638658C50.8155 0.392229 51.176 0.21867 51.5866 0.117981C51.8896 0.0437021 52.155 0.00524554 52.3829 0.00261138C52.6099 -0.0033691 52.7806 0.000922619 52.8949 0.0154866L52.8429 1.31665C52.7672 1.3139 52.6705 1.31277 52.5528 1.31324C52.4343 1.31036 52.2959 1.32832 52.1377 1.36711C51.7708 1.45707 51.5306 1.61178 51.4173 1.83124C51.3073 2.04987 51.2946 2.32982 51.3793 2.67109L53.4643 11.0722L51.9546 11.4424Z" fill="#E2E2E2"/><path d="M72.5356 12.7451L74.4282 1.99141L75.924 2.25149L75.7008 3.51933L75.8289 3.5416C75.9464 3.3941 76.1076 3.22797 76.3126 3.04322C76.5175 2.85846 76.7826 2.71214 77.1078 2.60426C77.4336 2.49298 77.8407 2.4798 78.329 2.56471C78.9642 2.67515 79.5031 2.93326 79.9455 3.33903C80.388 3.74481 80.6981 4.27275 80.8758 4.92285C81.0569 5.57356 81.0731 6.32152 80.9243 7.16675C80.7756 8.01197 80.5063 8.71205 80.1165 9.26699C79.7273 9.81853 79.2565 10.2142 78.7039 10.454C78.152 10.6903 77.5584 10.7533 76.9232 10.6429C76.4451 10.5597 76.0681 10.412 75.7923 10.1996C75.5198 9.98779 75.317 9.76012 75.1839 9.51658C75.0508 9.27304 74.9528 9.06009 74.8898 8.87772L74.7976 8.86169L74.0673 13.0114L72.5356 12.7451ZM75.2409 6.16283C75.1441 6.71273 75.1396 7.2087 75.2272 7.65074C75.3148 8.09277 75.49 8.45732 75.7527 8.74439C76.016 9.02806 76.368 9.20819 76.8085 9.28479C77.2661 9.36436 77.6698 9.31036 78.0196 9.12279C78.37 8.93183 78.6604 8.64124 78.891 8.25103C79.125 7.86142 79.288 7.40524 79.38 6.88249C79.4708 6.36653 79.4738 5.88952 79.389 5.45148C79.3076 5.01402 79.1324 4.64947 78.8634 4.35783C78.5979 4.06677 78.2346 3.88116 77.7736 3.801C77.3296 3.72381 76.9339 3.77221 76.5866 3.9462C76.2426 4.12079 75.9562 4.39809 75.7274 4.77811C75.4987 5.15814 75.3365 5.61971 75.2409 6.16283Z" fill="#E2E2E2"/><path d="M85.2178 12.8933C84.6115 12.6749 84.1266 12.3261 83.7629 11.8469C83.4037 11.3656 83.1934 10.7895 83.1319 10.1186C83.0749 9.44567 83.1935 8.70583 83.4876 7.89912C83.7818 7.09241 84.1687 6.45106 84.6483 5.97507C85.1312 5.50025 85.6661 5.19629 86.253 5.06318C86.84 4.93007 87.4349 4.97213 88.0379 5.18935C88.504 5.35726 88.8505 5.57005 89.0774 5.82772C89.3087 6.08331 89.4654 6.34135 89.5474 6.60182C89.6327 6.86346 89.691 7.08789 89.7223 7.27511L89.8103 7.30681L91.1588 3.60857L92.6207 4.13519L88.9917 14.0879L87.564 13.5736L87.9875 12.4121L87.8653 12.3681C87.7194 12.4951 87.5261 12.6308 87.2855 12.775C87.0481 12.9204 86.7582 13.0176 86.4158 13.0665C86.0735 13.1154 85.6741 13.0577 85.2178 12.8933ZM85.9923 11.7704C86.4128 11.9218 86.8083 11.9397 87.1787 11.8239C87.5536 11.706 87.888 11.4764 88.1821 11.1352C88.4794 10.7951 88.7237 10.3627 88.9151 9.83781C89.1041 9.31944 89.1945 8.83886 89.1864 8.39607C89.1782 7.95328 89.0686 7.5711 88.8577 7.24953C88.6467 6.92796 88.3278 6.69026 87.9008 6.53644C87.4607 6.37793 87.0527 6.35922 86.6767 6.48033C86.3006 6.60144 85.9661 6.831 85.6733 7.16901C85.3837 7.50818 85.1491 7.924 84.9695 8.41645C84.7876 8.91538 84.6989 9.3911 84.7036 9.84361C84.7082 10.2961 84.8147 10.6918 85.023 11.0308C85.2357 11.3677 85.5588 11.6142 85.9923 11.7704Z" fill="#E2E2E2"/><path d="M97.8444 9.74913L97.2619 10.8463L93.2698 8.75206L93.8523 7.65492L97.8444 9.74913ZM91.2185 15.2508L95.379 7.41542C95.612 6.97657 95.902 6.66304 96.2489 6.47485C96.5974 6.28361 96.9691 6.20001 97.364 6.22406C97.7606 6.24505 98.1459 6.35366 98.52 6.54989C98.7959 6.69465 99.0199 6.84136 99.1918 6.99002C99.3654 7.13563 99.49 7.25165 99.5656 7.33808L98.6563 8.27548C98.6016 8.22341 98.5302 8.15865 98.4419 8.08119C98.3553 8.00068 98.2399 7.92263 98.0958 7.84703C97.7616 7.67171 97.4788 7.62854 97.2473 7.71751C97.0189 7.8081 96.8221 8.00882 96.6571 8.31967L92.5937 15.9722L91.2185 15.2508Z" fill="#E2E2E2"/><path d="M103.367 27.3927L111.491 20.0463L112.513 21.1628L111.555 22.029L111.643 22.1245C111.827 22.0795 112.056 22.0464 112.332 22.0252C112.608 22.004 112.908 22.0498 113.231 22.1626C113.557 22.2731 113.887 22.5105 114.221 22.8751C114.655 23.3492 114.922 23.8813 115.021 24.4715C115.121 25.0616 115.04 25.6677 114.78 26.2897C114.522 26.9143 114.074 27.5153 113.435 28.0927C112.797 28.6701 112.152 29.0594 111.502 29.2606C110.855 29.4595 110.239 29.4854 109.654 29.3384C109.072 29.1891 108.564 28.8774 108.13 28.4032C107.804 28.0464 107.597 27.7 107.51 27.3642C107.425 27.0309 107.405 26.7274 107.45 26.4539C107.495 26.1803 107.549 25.9523 107.611 25.7699L107.548 25.7011L104.413 28.5359L103.367 27.3927ZM109.562 23.8381C109.147 24.2137 108.838 24.6029 108.634 25.0056C108.431 25.4083 108.345 25.8031 108.376 26.19C108.409 26.5746 108.576 26.9313 108.877 27.2601C109.189 27.6017 109.542 27.8048 109.934 27.8696C110.329 27.932 110.737 27.8793 111.16 27.7113C111.585 27.5459 111.995 27.2846 112.39 26.9275C112.78 26.575 113.076 26.1999 113.279 25.802C113.484 25.4067 113.571 25.0119 113.538 24.6177C113.508 24.2259 113.335 23.858 113.02 23.5139C112.717 23.1825 112.374 22.9798 111.992 22.9057C111.613 22.8342 111.216 22.879 110.8 23.04C110.385 23.201 109.973 23.467 109.562 23.8381Z" fill="#E2E2E2"/><path d="M113.211 35.1466C112.865 34.6058 112.695 34.0353 112.701 33.4351C112.712 32.8359 112.899 32.252 113.263 31.6832C113.631 31.1156 114.179 30.6014 114.907 30.1408C115.636 29.6802 116.336 29.4068 117.008 29.3207C117.682 29.2375 118.292 29.3212 118.839 29.5718C119.386 29.8223 119.831 30.2166 120.176 30.7544C120.442 31.1702 120.586 31.549 120.607 31.8907C120.633 32.2335 120.599 32.5329 120.504 32.789C120.411 33.048 120.319 33.2612 120.229 33.4285L120.279 33.507L123.618 31.3953L124.453 32.6993L115.467 38.3822L114.652 37.1087L115.701 36.4455L115.631 36.3365C115.437 36.3487 115.201 36.3389 114.922 36.3071C114.645 36.2783 114.355 36.1794 114.054 36.0105C113.753 35.8416 113.472 35.5536 113.211 35.1466ZM114.514 34.7269C114.754 35.1019 115.057 35.3559 115.421 35.4889C115.791 35.6229 116.197 35.644 116.639 35.552C117.083 35.463 117.542 35.2686 118.016 34.9689C118.484 34.6729 118.851 34.3471 119.116 33.9914C119.382 33.6356 119.53 33.2664 119.56 32.8837C119.59 32.501 119.484 32.1192 119.24 31.7384C118.989 31.3459 118.677 31.0835 118.305 30.9514C117.932 30.8192 117.526 30.7981 117.087 30.8882C116.649 30.9812 116.208 31.1683 115.763 31.4495C115.313 31.7344 114.951 32.0575 114.676 32.4188C114.402 32.78 114.244 33.1581 114.201 33.553C114.162 33.9489 114.267 34.3402 114.514 34.7269Z" fill="#E2E2E2"/><path d="M125.109 40.2737L123.974 40.7908L122.093 36.7124L123.227 36.1953L125.109 40.2737ZM116.482 40.6232L124.585 36.93C125.038 36.7232 125.461 36.6502 125.851 36.7111C126.245 36.7705 126.591 36.9294 126.889 37.1876C127.19 37.4444 127.429 37.7639 127.606 38.1461C127.736 38.428 127.823 38.6799 127.869 38.902C127.917 39.1225 127.945 39.29 127.952 39.4043L126.656 39.5969C126.645 39.5225 126.628 39.4279 126.605 39.313C126.586 39.1967 126.542 39.0649 126.474 38.9177C126.317 38.5763 126.119 38.3708 125.881 38.3011C125.644 38.2346 125.365 38.2746 125.044 38.4211L117.131 42.028L116.482 40.6232Z" fill="#E2E2E2"/></svg>