<?xml version="1.0" encoding="utf-8"?>
<!-- Generator: Adobe Illustrator 16.2.0, SVG Export Plug-In . SVG Version: 6.00 Build 0)  -->
<!DOCTYPE svg PUBLIC "-//W3C//DTD SVG 1.1//EN" "http://www.w3.org/Graphics/SVG/1.1/DTD/svg11.dtd">
<svg version="1.1" id="Capa_1" xmlns="http://www.w3.org/2000/svg" xmlns:xlink="http://www.w3.org/1999/xlink" x="0px" y="0px"
	 width="16px" height="16px" viewBox="0 0 16 16" enable-background="new 0 0 16 16" xml:space="preserve">
<path fill="#3072D0" d="M14.101,1.924H1.899C0.852,1.924,0,2.742,0,3.748v8.506c0,1.004,0.852,1.822,1.899,1.822h12.201
	c1.049,0,1.899-0.818,1.899-1.822V3.748C16,2.742,15.148,1.924,14.101,1.924z M14.101,12.467H1.899
	c-0.154,0-0.289-0.102-0.289-0.213V4.873l5.519,4.658C7.242,9.629,7.386,9.68,7.534,9.68h0.932c0.148,0,0.292-0.053,0.405-0.148
	l5.519-4.658v7.381C14.39,12.365,14.255,12.467,14.101,12.467z M8,8.08L2.632,3.533h10.735L8,8.08z"/>
</svg>
