<svg width="52" height="52" viewBox="0 0 52 52" fill="none" xmlns="http://www.w3.org/2000/svg">
<g id="Group 466">
<path id="Ellipse 140" d="M50.9864 26C50.9864 39.8074 39.7963 51 25.9932 51C12.1901 51 1 39.8074 1 26C1 12.1926 12.1901 1 25.9932 1C39.7963 1 50.9864 12.1926 50.9864 26Z" fill="#2BC356" stroke="#2BC356" stroke-width="2"/>
<path id="Arrow 2" d="M18.9393 24.9393C18.3536 25.5251 18.3536 26.4749 18.9393 27.0607L28.4853 36.6066C29.0711 37.1924 30.0208 37.1924 30.6066 36.6066C31.1924 36.0208 31.1924 35.0711 30.6066 34.4853L22.1213 26L30.6066 17.5147C31.1924 16.9289 31.1924 15.9792 30.6066 15.3934C30.0208 14.8076 29.0711 14.8076 28.4853 15.3934L18.9393 24.9393ZM21 24.5H20V27.5H21V24.5Z" fill="white"/>
</g>
</svg>
