<?xml version="1.0" encoding="utf-8"?>
<!-- Generator: Adobe Illustrator 16.2.0, SVG Export Plug-In . SVG Version: 6.00 Build 0)  -->
<!DOCTYPE svg PUBLIC "-//W3C//DTD SVG 1.1//EN" "http://www.w3.org/Graphics/SVG/1.1/DTD/svg11.dtd">
<svg version="1.1" id="Capa_1" xmlns="http://www.w3.org/2000/svg" xmlns:xlink="http://www.w3.org/1999/xlink" x="0px" y="0px"
	 width="40px" height="40px" viewBox="0 0 40 40" enable-background="new 0 0 40 40" xml:space="preserve">
<g>
	<path fill="#1F7CCD" d="M8.281,19.219C7.85,19.219,7.5,19.568,7.5,20v9.375c0,0.433,0.35,0.782,0.781,0.782h7.031
		c0.432,0,0.78-0.35,0.78-0.782V20c0-0.432-0.35-0.781-0.78-0.781H8.281z M14.531,20.781v3.125H9.063v-3.125H14.531z M9.063,28.594
		v-3.125h5.469v3.125H9.063z"/>
	<path fill="#1F7CCD" d="M39.733,17.068C38.741,16.197,20.848,0.486,20.516,0.193c-0.292-0.254-0.727-0.258-1.022-0.008
		c-0.003,0.004-0.006,0.006-0.01,0.008C18.355,1.185,0.891,16.52,0.266,17.068c-0.324,0.285-0.355,0.779-0.072,1.104
		c0.285,0.325,0.779,0.355,1.104,0.072l1.516-1.331v22.306C2.813,39.65,3.163,40,3.594,40h32.813c0.432,0,0.78-0.35,0.78-0.781
		v-7.89c0-0.432-0.35-0.781-0.78-0.781s-0.781,0.35-0.781,0.781v7.109H32.5v-3.906c0-0.432-0.35-0.781-0.781-0.781h-1.563V20
		c0-0.432-0.35-0.781-0.781-0.781H20c-0.432,0-0.781,0.35-0.781,0.781v13.751h-1.563c-0.432,0-0.781,0.35-0.781,0.781v3.906h-12.5
		V15.54l2.572-2.259h26.104l2.573,2.259v8.756c0,0.433,0.35,0.781,0.781,0.781c0.431,0,0.781-0.351,0.781-0.781v-7.384l1.516,1.331
		c0.324,0.284,0.817,0.252,1.103-0.072C40.09,17.848,40.058,17.354,39.733,17.068z M20.781,20.781h7.813v5.469h-1.563
		c-0.432,0-0.781,0.35-0.781,0.781c0,0.431,0.35,0.781,0.781,0.781h1.563v5.938h-7.813V20.781z M18.437,35.313h12.5v3.125h-12.5
		V35.313L18.437,35.313z M19.218,2.506v9.212H8.729L19.218,2.506z M20.781,11.718V2.506l10.49,9.212H20.781z"/>
	<circle fill="#1F7CCD" cx="36.406" cy="27.813" r="0.781"/>
</g>
</svg>
