<?xml version="1.0" encoding="utf-8"?>
<!-- Generator: Adobe Illustrator 16.2.0, SVG Export Plug-In . SVG Version: 6.00 Build 0)  -->
<!DOCTYPE svg PUBLIC "-//W3C//DTD SVG 1.1//EN" "http://www.w3.org/Graphics/SVG/1.1/DTD/svg11.dtd">
<svg version="1.1" id="Слой_1" xmlns="http://www.w3.org/2000/svg" xmlns:xlink="http://www.w3.org/1999/xlink" x="0px" y="0px"
	 width="28px" height="28px" viewBox="242 242 28 28" enable-background="new 242 242 28 28" xml:space="preserve">
<path fill="#315473" d="M270,258.516v-7.93c0-1.373-0.409-2.647-1.215-3.787c-0.737-1.042-1.791-1.944-3.132-2.682
	c-2.482-1.366-5.91-2.118-9.653-2.118c-3.656,0-7.108,0.933-9.721,2.627c-2.759,1.789-4.279,4.216-4.279,6.834
	c0,0.018,0,0.037,0,0.055v8.695c0,1.629,0.54,3.127,1.605,4.455c0.942,1.175,2.281,2.19,3.979,3.02
	c3.056,1.492,7.132,2.314,11.479,2.314H270v-9.297h-10.938c-3.813,0-7.397-0.894-10.172-2.524v-2.561
	c0.437,0.344,0.934,0.664,1.491,0.955c2.127,1.112,4.958,1.725,7.97,1.725c3.06,0,5.913-0.715,8.034-2.013
	c0.531-0.325,1.008-0.681,1.427-1.063v3.295H270z M267.812,262.891v4.922h-2.188v-2.734h-2.188v2.734h-2.188v-2.734h-2.188v2.734
	c-0.735,0-1.467-0.026-2.188-0.078v-2.741c-0.739-0.058-1.469-0.145-2.188-0.26v2.764c-0.752-0.11-1.484-0.249-2.188-0.414v-2.796
	c-0.749-0.188-1.479-0.407-2.188-0.658v2.822c-0.629-0.22-1.222-0.464-1.769-0.731c-0.138-0.067-0.278-0.139-0.418-0.214v-2.783
	c-0.748-0.36-1.462-0.759-2.136-1.194c-0.017-0.012-0.034-0.023-0.051-0.034v2.476c-1.005-0.955-1.75-2.191-1.75-3.759v-3.11
	c0.801,0.954,1.802,1.822,2.989,2.591c3.189,2.063,7.411,3.199,11.886,3.199H267.812z M254.469,255.699v-2.207
	c1.06,0.281,2.274,0.484,3.773,0.484v-2.188c-1.904,0-3.292-0.392-4.508-0.814l-1.453-0.505v4.564
	c-2.06-0.83-3.391-2.061-3.391-3.408c0-1.748,3.123-3.117,7.109-3.117c1.978,0,3.957,0.312,5.43,0.856
	c1.334,0.492,1.748,0.981,1.828,1.165c-0.127,0.144-0.556,0.466-1.517,0.765c-1.012,0.314-2.283,0.495-3.488,0.495v2.188
	c1.617,0,3.288-0.271,4.585-0.745c0.154-0.056,0.299-0.114,0.436-0.173v2.276c-1.454,0.505-3.14,0.774-4.922,0.774
	C256.977,256.11,255.66,255.962,254.469,255.699z M265.461,254.281v-3.694c0-0.943-0.567-2.276-3.273-3.274
	c-1.706-0.63-3.962-0.991-6.188-0.991c-2.405,0-4.635,0.445-6.278,1.254c-1.86,0.916-2.921,2.27-3.012,3.832h-0.007v5.168
	c-1.635-1.512-2.516-3.28-2.516-5.113c0-1.852,1.166-3.627,3.281-4.999c2.263-1.466,5.292-2.274,8.531-2.274
	c3.381,0,6.435,0.656,8.599,1.847c1.466,0.807,3.214,2.251,3.214,4.551C267.812,252.34,266.581,253.546,265.461,254.281z"/>
</svg>
