<?xml version="1.0" encoding="utf-8"?>
<!-- Generator: Adobe Illustrator 16.2.0, SVG Export Plug-In . SVG Version: 6.00 Build 0)  -->
<!DOCTYPE svg PUBLIC "-//W3C//DTD SVG 1.1//EN" "http://www.w3.org/Graphics/SVG/1.1/DTD/svg11.dtd">
<svg version="1.1" id="Capa_1" xmlns="http://www.w3.org/2000/svg" xmlns:xlink="http://www.w3.org/1999/xlink" x="0px" y="0px"
	 width="28px" height="28px" viewBox="77 18 28 28" enable-background="new 77 18 28 28" xml:space="preserve">
<g>
	<g>
		<path fill="#315473" d="M101.719,24.344h-5.797v-3.281c0-0.604-0.489-1.094-1.094-1.094h-7.656c-0.604,0-1.094,0.49-1.094,1.094
			v3.281h-5.797c-1.809,0-3.281,1.472-3.281,3.281V40.75c0,1.809,1.472,3.281,3.281,3.281h21.438c1.809,0,3.281-1.473,3.281-3.281
			V27.625C105,25.816,103.527,24.344,101.719,24.344z M88.266,22.156h5.469v2.188h-5.469V22.156z M102.813,40.75
			c0,0.604-0.49,1.094-1.094,1.094H80.281c-0.603,0-1.094-0.49-1.094-1.094v-7.656h8.531v1.641c0,0.604,0.49,1.094,1.094,1.094
			h4.375c0.604,0,1.094-0.489,1.094-1.094v-1.641h8.531V40.75z M102.813,30.906h-9.625c-0.604,0-1.094,0.49-1.094,1.094v1.641
			h-2.188V32c0-0.604-0.49-1.094-1.094-1.094h-9.625v-3.281c0-0.603,0.491-1.094,1.094-1.094c0.381,0,21.06,0,21.438,0
			c0.604,0,1.094,0.491,1.094,1.094V30.906z"/>
	</g>
</g>
</svg>
