<?xml version="1.0" encoding="utf-8"?>
<!-- Generator: Adobe Illustrator 16.2.0, SVG Export Plug-In . SVG Version: 6.00 Build 0)  -->
<!DOCTYPE svg PUBLIC "-//W3C//DTD SVG 1.1//EN" "http://www.w3.org/Graphics/SVG/1.1/DTD/svg11.dtd">
<svg version="1.1" id="Capa_1" xmlns="http://www.w3.org/2000/svg" xmlns:xlink="http://www.w3.org/1999/xlink" x="0px" y="0px"
	 width="32px" height="32px" viewBox="75 15.833 32 32" enable-background="new 75 15.833 32 32" xml:space="preserve">
<g>
	<g>
		<path fill="#315473" d="M102.267,21.294l-10.793-4.557c-0.298-0.128-0.642-0.131-0.947,0l-10.794,4.557
			C79.289,21.482,79,21.917,79,22.4v3.952c0,8.389,4.258,16.235,11.328,20.802c0.001,0,0.001,0.001,0.002,0.001
			c0.442,0.286,0.935,0.262,1.338,0c0.001,0,0.002-0.001,0.003-0.001C98.747,42.583,103,34.733,103,26.352V22.4
			C103,21.917,102.711,21.482,102.267,21.294z M89.8,43.818c-5.362-4.292-8.4-10.738-8.4-17.467v-3.156l8.4-3.546V43.818z
			 M100.6,26.352c0,6.723-3.032,13.171-8.399,17.467V19.649l8.399,3.546V26.352z"/>
	</g>
</g>
</svg>
