<?xml version="1.0" encoding="utf-8"?>
<!-- Generator: Adobe Illustrator 16.2.0, SVG Export Plug-In . SVG Version: 6.00 Build 0)  -->
<!DOCTYPE svg PUBLIC "-//W3C//DTD SVG 1.1//EN" "http://www.w3.org/Graphics/SVG/1.1/DTD/svg11.dtd">
<svg version="1.1" id="Capa_1" xmlns="http://www.w3.org/2000/svg" xmlns:xlink="http://www.w3.org/1999/xlink" x="0px" y="0px"
	 width="16px" height="16px" viewBox="0.5 0.5 16 16" enable-background="new 0.5 0.5 16 16" xml:space="preserve">
<g>
	<g>
		<path fill="#005FB3" d="M15.389,2.941H1.611C0.998,2.941,0.5,3.439,0.5,4.054c0,0.614,0.498,1.111,1.111,1.111h13.777
			c0.613,0,1.111-0.498,1.111-1.111C16.5,3.439,16.002,2.941,15.389,2.941z"/>
	</g>
	<g>
		<path fill="#005FB3" d="M15.389,7.388H1.611C0.998,7.388,0.5,7.886,0.5,8.5c0,0.614,0.498,1.111,1.111,1.111h13.777
			c0.613,0,1.111-0.497,1.111-1.111C16.5,7.886,16.002,7.388,15.389,7.388z"/>
	</g>
	<g>
		<path fill="#005FB3" d="M15.389,11.836H1.611c-0.614,0-1.111,0.497-1.111,1.111c0,0.613,0.498,1.111,1.111,1.111h13.777
			c0.613,0,1.111-0.498,1.111-1.111C16.5,12.333,16.002,11.836,15.389,11.836z"/>
	</g>
</g>
</svg>
