<svg width="25" height="25" viewBox="0 0 25 25" fill="none" xmlns="http://www.w3.org/2000/svg">
    <path d="M23.75 15C23 15 22.5 15.5 22.5 16.25V21.25C22.5 22 22 22.5 21.25 22.5H3.75C3 22.5 2.5 22 2.5 21.25V16.25C2.5 15.5 2 15 1.25 15C0.5 15 0 15.5 0 16.25V21.25C0 23.375 1.625 25 3.75 25H21.25C23.375 25 25 23.375 25 21.25V16.25C25 15.5 24.5 15 23.75 15Z"
    fill="white" />
    <path d="M11.625 17.125C11.75 17.25 11.875 17.375 12 17.375C12.125 17.5 12.375 17.5 12.5 17.5C12.625 17.5 12.875 17.5 13 17.375C13.125 17.25 13.25 17.25 13.375 17.125L19.625 10.875C20.125 10.375 20.125 9.625 19.625 9.125C19.125 8.625 18.375 8.625 17.875 9.125L13.75 13.25V1.25C13.75 0.5 13.25 0 12.5 0C11.75 0 11.25 0.5 11.25 1.25V13.25L7.125 9.125C6.625 8.625 5.875 8.625 5.375 9.125C4.875 9.625 4.875 10.375 5.375 10.875L11.625 17.125Z"
    fill="white" />
</svg>